<?xml version="1.0" encoding="UTF-8"?>
<svg xmlns="http://www.w3.org/2000/svg" xmlns:xlink="http://www.w3.org/1999/xlink" viewBox="0 0 480 480" width="480px" height="480px">
<g id="surface17305385">
<path style=" stroke:none;fill-rule:nonzero;fill:rgb(18.039216%,80.000001%,44.313726%);fill-opacity:1;" d="M 420 385 C 420 412 400 436 373 440 C 344 445 300 450 240 450 C 180 450 136 445 107 441 C 80 436 60 413 60 385 L 60 94 C 60 67 80 43 107 39 C 136 35 180 30 240 30 C 300 30 344 35 373 39 C 400 44 420 67 420 94 Z M 420 385 "/>
<path style=" stroke:none;fill-rule:nonzero;fill:rgb(100%,100%,100%);fill-opacity:1;" d="M 306 360 C 298 356 295 344 294 332 C 289 281 262 248 256 238 C 288 219 300 185 300 157 C 300 111 260 90 226 90 L 136 90 C 139 95 142 97 142 108 L 142 338 C 142 349 137 355 134 360 L 179 360 C 176 355 171 350 171 338 L 171 260 C 199 260 220 255 238 247 C 266 278 268 315 268 328 C 268 340 262 351 253 360 Z M 170 238 L 170 110 L 219 110 C 256 110 270 135 270 160 C 268 229 201 238 170 238 Z M 182 120 L 219 120 C 232 120 242 124 249 131 C 252 134 254 137 255 140 L 216 140 L 216 221 C 207 224 197 226 188 227 L 188 138 C 188 127 186 125 182 120 Z M 352 390 L 298 390 C 308 381 314 370 313 358 C 313 348 311 320 295 293 C 290 277 283 264 277 254 C 297 243 314 224 315 189 C 315 179 313 169 308 161 C 308 159 308 158 308 156 C 308 144 306 134 301 124 C 325 133 344 153 344 186 C 344 213 332 248 300 267 C 307 277 333 310 338 361 C 341 374 344 386 352 390 Z M 216 368 C 216 379 221 385 224 390 L 180 390 C 183 385 188 380 188 368 L 188 269 C 198 268 207 267 216 264 L 216 268 C 222 268 230 268 239 266 C 243 273 247 280 249 286 C 239 288 228 289 216 289 Z M 216 368 "/>
</g>
</svg>
